<?xml version="1.0" standalone="no"?>
<!DOCTYPE svg PUBLIC "-//W3C//DTD SVG 20010904//EN"
 "http://www.w3.org/TR/2001/REC-SVG-20010904/DTD/svg10.dtd">
<svg version="1.0" xmlns="http://www.w3.org/2000/svg"
 width="500.000000pt" height="500.000000pt" viewBox="0 0 500.000000 500.000000"
 preserveAspectRatio="xMidYMid meet">
<metadata>
Created by potrace 1.14, written by Peter Selinger 2001-2017
</metadata>
<g transform="translate(0.000000,500.000000) scale(0.100000,-0.100000)"
fill="#000000" stroke="none">
<path d="M2010 4274 c-283 -52 -391 -85 -564 -171 -514 -258 -856 -738 -931
-1310 -12 -95 -15 -280 -15 -1094 l0 -979 325 0 324 0 3 998 3 997 23 75 c120
389 458 719 836 815 223 57 519 19 747 -95 83 -42 226 -141 296 -205 154 -139
289 -361 334 -548 28 -118 31 -284 6 -376 -35 -129 -96 -252 -164 -329 l-32
-37 -378 378 -378 377 -215 -215 -215 -215 379 -379 378 -379 -53 -42 c-60
-48 -206 -122 -289 -147 -46 -14 -124 -18 -450 -22 l-395 -6 -3 -323 -2 -324
457 5 c490 5 515 7 722 63 160 43 315 112 477 210 44 26 79 42 83 36 3 -5 51
-77 106 -160 l100 -152 485 0 485 0 -375 375 -375 375 19 33 c225 387 298 638
299 1022 1 471 -155 853 -487 1193 -262 268 -589 447 -966 528 -111 23 -151
27 -350 29 -124 2 -236 1 -250 -1z"/>
</g>
</svg>
